<svg width="16" height="56" viewBox="0 0 16 56" fill="none" xmlns="http://www.w3.org/2000/svg">
<path d="M9 32C9 31.4477 8.55228 31 8 31C7.44772 31 7 31.4477 7 32L9 32ZM7.29289 55.7071C7.68342 56.0976 8.31658 56.0976 8.70711 55.7071L15.0711 49.3431C15.4616 48.9526 15.4616 48.3195 15.0711 47.9289C14.6805 47.5384 14.0474 47.5384 13.6569 47.9289L8 53.5858L2.34315 47.9289C1.95262 47.5384 1.31946 47.5384 0.928933 47.9289C0.538409 48.3195 0.538409 48.9526 0.928933 49.3431L7.29289 55.7071ZM7 32L7 55L9 55L9 32L7 32Z" fill="white"/>
<path fill-rule="evenodd" clip-rule="evenodd" d="M8 2C8.55228 2 9 1.55228 9 1C9 0.447715 8.55228 0 8 0C7.44772 0 7 0.447715 7 1C7 1.55228 7.44772 2 8 2ZM9 9C9 9.55229 8.55228 10 8 10C7.44772 10 7 9.55229 7 9C7 8.44771 7.44772 8 8 8C8.55228 8 9 8.44771 9 9ZM8 18C8.55228 18 9 17.5523 9 17C9 16.4477 8.55228 16 8 16C7.44772 16 7 16.4477 7 17C7 17.5523 7.44772 18 8 18ZM8 26C8.55228 26 9 25.5523 9 25C9 24.4477 8.55228 24 8 24C7.44772 24 7 24.4477 7 25C7 25.5523 7.44772 26 8 26Z" fill="url(#paint0_linear_446_1402)"/>
<defs>
<linearGradient id="paint0_linear_446_1402" x1="8" y1="26" x2="8" y2="-4" gradientUnits="userSpaceOnUse">
<stop stop-color="white"/>
<stop offset="1" stop-color="white" stop-opacity="0"/>
</linearGradient>
</defs>
</svg>
