<svg width="485" height="448" viewBox="0 0 485 448" fill="none" xmlns="http://www.w3.org/2000/svg">
<path d="M242.5 0C286.345 0 326.897 8.5332 364.156 25.5996C401.415 42.666 430.871 65.873 452.522 95.22C474.174 124.566 485 156.577 485 191.252C485 225.926 474.174 257.982 452.522 287.42C430.871 316.857 401.46 340.109 364.291 357.175C327.122 374.241 286.525 382.775 242.5 382.775C228.607 382.775 214.262 381.781 199.467 379.795C135.233 424.402 101.042 446.977 96.892 447.518C94.907 448.241 93.012 448.15 91.208 447.248C90.486 446.706 89.945 445.983 89.584 445.08C89.223 444.177 89.043 443.365 89.043 442.642V441.559C90.126 434.515 98.335 405.169 113.672 353.518C78.8486 336.181 51.1974 313.2 30.7185 284.575C10.2395 255.951 0 224.843 0 191.252C0 156.577 10.8259 124.566 32.4777 95.22C54.1295 65.873 83.5849 42.666 120.844 25.5996C158.103 8.5332 198.655 0 242.5 0Z" fill="#181600"/>
</svg>
